<svg width="500" height="500" viewBox="0 0 500 500" fill="none" xmlns="http://www.w3.org/2000/svg">
<path d="M195 64H398V457H195V64Z" fill="#ffc145"/>
<path fill-rule="evenodd" clip-rule="evenodd" d="M0 500H500V0H0V500ZM269.454 87.054C277.586 89.284 287.84 92.422 292.239 94.028C305.755 98.961 325.103 110.194 331.196 116.645C337.182 122.983 340.373 135.62 341.565 157.71L342.278 170.92L346.111 173.577C355.239 179.903 360.977 188.463 360.994 195.782C361.001 198.501 358.854 203.716 356.581 206.5C355.683 207.6 356.149 205.973 357.616 202.885C361.047 195.665 360.477 193.4 353.354 185.933C339.971 171.902 314.777 154.874 295.297 146.693C282.867 141.473 277.179 139.735 262.247 136.599L251.5 134.341L251.866 123.92C252.067 118.189 252.661 112.684 253.185 111.686C253.818 110.483 253.764 109.42 253.025 108.53C252.412 107.792 251.637 101.745 251.303 95.094C250.719 83.491 250.775 83 252.681 83C253.773 83 261.321 84.824 269.454 87.054ZM339.154 208.126C344.373 209.246 346.285 210.67 352 217.694C355.406 221.88 357 224.683 357 226.486C357 227.319 357.675 228 358.5 228C359.325 228 360 227.38 360 226.622C360 225.865 360.654 224.702 361.454 224.039C363.347 222.467 368.037 225.1 370.364 229.04C372.273 232.271 372.574 243.224 370.961 250.747C370.389 253.412 369.543 258.721 369.08 262.546C368.617 266.371 367.644 270.94 366.919 272.7C365.74 275.56 365.807 276.133 367.55 278.096C368.945 279.668 369.145 280.417 368.25 280.729C367.364 281.039 367 284.046 367 291.063C367 297.864 366.492 302.229 365.376 305.019C364.382 307.501 363.97 310.43 364.315 312.556C364.793 315.501 364.492 316.287 362.35 317.69C360.315 319.023 359.931 319.906 360.389 322.193C360.829 324.393 360.225 326 357.729 329.279C354.811 333.11 352.241 338.174 350.552 343.417C350.081 344.878 349.657 345.057 348.767 344.167C346.956 342.356 345 342.789 345 345C345 346.178 344.333 347 343.378 347C341.981 347 341.946 347.232 343.128 348.664C344.384 350.186 344.119 350.269 340 349.634C332.694 348.509 328.8 346.963 329.392 345.421C329.683 344.663 329.118 340.882 328.137 337.019L326.353 329.995L324.177 332.312C322.979 333.586 322 335.081 322 335.634C322 336.188 320.425 338.48 318.5 340.729C316.575 342.978 315 345.272 315 345.828C315 347.696 311.512 352.987 310.276 352.994C309.602 352.997 308.381 354.295 307.563 355.879C306.744 357.462 305.382 359.023 304.537 359.347C303.692 359.672 303 360.626 303 361.469C303 362.311 302.87 363 302.711 363C302.02 363 294.775 359.058 293.46 357.966C292.663 357.305 291.143 356.991 290.083 357.268C289.022 357.545 286.882 356.933 285.327 355.907C275.582 349.479 271.479 346.249 271.197 344.783C270.77 342.567 274.954 340.489 283.974 338.438C291.729 336.674 295 334.378 295 330.7C295 327.298 293.122 326 288.2 326C284.509 326 283.239 325.439 280.317 322.517C276.961 319.161 276.731 319.088 273.988 320.506C270.729 322.191 265 321.495 265 319.414C265 317.608 268.991 314 270.989 314C271.875 314 273.111 313.489 273.736 312.864C274.361 312.239 279.136 311.505 284.347 311.232C295.012 310.675 294.203 310.337 307 320.701C310.575 323.597 314.912 327.098 316.637 328.483C321.377 332.286 323.002 331.842 322.988 326.75C322.955 314.976 315.291 298.587 307.634 293.919C303.405 291.34 299 291.351 299 293.941C299 296.407 297.392 297.464 296.636 295.494C295.544 292.648 294 294.017 294 297.833C294 302.37 294.769 303.434 296.821 301.741C298.052 300.725 298.235 300.772 297.83 302C297.066 304.312 294.413 304.35 288.713 302.132C285.846 301.016 282.262 299.846 280.75 299.532C276.95 298.744 277.292 297.003 281.25 296.986C283.038 296.979 285.512 296.701 286.75 296.37C288.579 295.88 289 296.174 289 297.942C289 299.139 289.45 299.84 290 299.5C291.303 298.695 291.283 294.397 289.965 291.934C289.395 290.87 288.003 290 286.871 290C285.657 290 284.599 289.184 284.292 288.01C283.919 286.582 283.168 286.156 281.636 286.505C278.722 287.168 274 282.866 274 279.548C274 277.244 273.618 277 270.023 277C264.772 277 262.452 273.826 263.395 267.929C264.179 263.027 261.993 257.794 257.895 254.764C254.885 252.539 253.323 249.873 255.256 250.262C256.039 250.419 256.689 247.856 257.178 242.69C258.182 232.065 260.892 227.234 267.346 224.559L272.189 222.551L277.345 225.437C292.297 233.805 295.011 234.946 297.606 233.96C298.994 233.432 302.099 233 304.506 233C309.365 233 311.102 231.527 308.493 229.619C306.931 228.476 307.014 228.221 309.477 226.607C311.916 225.009 312.026 224.686 310.648 223.163C309.283 221.655 309.308 221.243 310.897 219.136L312.667 216.79L316.794 218.895C321.171 221.128 324 221.595 324 220.084C324 219.36 320.444 216.258 315.083 212.307C313.681 211.273 316.397 210.943 318.958 211.836C321.791 212.823 321.943 212.762 321.009 211.017C319.541 208.274 319.637 208.159 323.75 207.728C331.214 206.948 333.992 207.02 339.154 208.126ZM355 217.118C355 217.668 354.55 217.84 354 217.5C353.45 217.16 353 216.432 353 215.882C353 215.332 353.45 215.16 354 215.5C354.55 215.84 355 216.568 355 217.118ZM364.212 233.188C362.477 234.923 362.758 238.878 364.945 243.5L366.838 247.5L367.086 241.75C367.222 238.588 367.371 235.25 367.417 234.333C367.522 232.222 365.795 231.605 364.212 233.188ZM364 258.5C364 260.425 364.398 262 364.883 262C366.037 262 367.015 258.203 366.325 256.404C365.322 253.789 364 254.981 364 258.5ZM268.849 260.997C267.201 262.645 265.998 264.783 266.176 265.747C266.354 266.711 268.564 268.525 271.088 269.778C275.746 272.091 286 273.945 286 272.474C286 270.439 275.453 258 273.727 258C272.693 258 270.498 259.349 268.849 260.997ZM290.432 262.511C289.703 266.394 290.875 268.517 294.34 269.594C295.528 269.963 298.118 272.005 300.096 274.133C302.074 276.26 304.226 278 304.878 278C306.977 278 307.39 274.745 305.672 271.751C304.752 270.149 304 267.974 304 266.919C304 265.864 303.325 265 302.5 265C300.692 265 300.567 263.833 302.2 262.2C303.62 260.78 302.14 260.626 300.01 261.973C298.981 262.623 297.494 262.309 295.203 260.957C293.378 259.881 291.707 259 291.488 259C291.27 259 290.794 260.58 290.432 262.511ZM261 276.5C261 277.325 260.55 278 260 278C259.45 278 259 277.325 259 276.5C259 275.675 259.45 275 260 275C260.55 275 261 275.675 261 276.5ZM277.015 280.25C277.038 282.085 278.787 284.546 279.537 283.796C280.411 282.922 279.099 279 277.933 279C277.42 279 277.007 279.563 277.015 280.25ZM305.985 297.309C305.993 297.754 305.55 297.84 305 297.5C304.45 297.16 304.007 296.121 304.015 295.191C304.029 293.734 304.165 293.707 305 295C305.533 295.825 305.976 296.864 305.985 297.309ZM345 367C345 367.55 344.55 368 344 368C343.45 368 343 367.55 343 367C343 366.45 343.45 366 344 366C344.55 366 345 366.45 345 367ZM346.813 385.74C341.14 402.572 336.603 409.752 321.481 425.827L313.903 433.882L303.428 433.289C293.525 432.728 292.822 432.819 290.562 434.942L288.171 437.188L287.05 435.094C286.39 433.859 284.942 433 283.524 433C279.606 433 279.615 431.168 283.549 427.729C285.581 425.953 289.002 422.137 291.153 419.25C294.027 415.391 295.717 414 297.532 414C299.132 414 300 413.435 300 412.393C300 411.314 300.539 410.993 301.64 411.415C302.671 411.811 303.807 411.293 304.697 410.022C305.476 408.91 306.744 408 307.516 408C309.752 408 315.948 404.61 315.975 403.372C316.012 401.702 318.768 399.694 323.385 397.975C326.494 396.817 328.469 395.011 331.581 390.475C334.624 386.04 336.26 384.523 337.93 384.589C339.494 384.651 340.902 383.531 342.56 380.905C345.361 376.468 348.997 372.88 350.04 373.524C350.445 373.775 348.993 379.272 346.813 385.74Z" fill="#041C32"/>
</svg>
