<svg viewBox="0 0 64 64" fill="none" xmlns="http://www.w3.org/2000/svg"><path fill-rule="evenodd" clip-rule="evenodd" d="M28.8.09c-3.907.372-8.339 1.693-11.697 3.485-3.147 1.68-5.283 3.286-7.918 5.957-4.03 4.084-6.784 8.87-8.236 14.317C.619 25.088.002 28.694 0 29.4c-.001.238.174.255 2.222.218l2.224-.04.103-.94c.666-6.03 3.868-12.371 8.407-16.65 9.181-8.655 22.91-10.063 33.588-3.446 5.478 3.395 9.688 8.712 11.698 14.772.508 1.532 1.238 4.821 1.238 5.577 0 .917-.029.906 2.349.906 2.548 0 2.314.325 1.881-2.613C62.453 18.64 57.691 11.01 50.37 5.81c-3.896-2.767-8.9-4.775-13.76-5.523C34.835.014 30.694-.091 28.8.09ZM11.278 19.272c.049.621.126 1.949.171 2.95.045 1.002.115 2.034.155 2.295l.072.473h4.221c2.392 0 4.222.057 4.222.13 0 .16-1.464 3.199-4.883 10.14-3.503 7.113-3.156 6.14-3.042 8.538l.097 2.024h18.033v-6.409h-3.952c-3.105 0-3.936-.04-3.877-.183.042-.1 1.786-3.906 3.877-8.459l3.802-8.276-.078-1.557a44.632 44.632 0 0 0-.152-2.176l-.075-.619H11.188l.09 1.13Zm21.524 12.71v13.84h7.286l.038-5.206c.035-4.72.061-5.21.28-5.252.181-.035.303.15.477.726.128.425.875 2.773 1.66 5.216l1.426 4.444 4.184.038c2.302.022 4.185.014 4.185-.015 0-.03-.267-.77-.593-1.642-.326-.872-1.088-2.93-1.693-4.573a1535.356 1535.356 0 0 0-2.273-6.134l-.357-.962.399-1.077c.37-1.003 3.733-9.903 4.578-12.116.207-.543.376-1.018.376-1.056 0-.039-1.826-.07-4.057-.07H44.66l-.156.473c-.085.26-.726 2.113-1.423 4.116a2879.04 2879.04 0 0 0-1.86 5.36c-.451 1.312-.647 1.708-.824 1.674-.207-.04-.237-.67-.27-5.834l-.039-5.789h-7.286v13.84ZM0 34.522c0 .803.519 3.933.884 5.329 1.514 5.795 4.17 10.463 8.292 14.573 5.822 5.805 12.524 8.911 20.47 9.488 9.691.704 18.869-2.81 25.476-9.753 4.7-4.94 7.633-10.87 8.587-17.358.16-1.087.29-2.093.291-2.235 0-.238-.175-.256-2.222-.219l-2.224.04-.096.947c-.483 4.742-2.82 10.2-6.054 14.145C48.146 55.89 40.221 59.66 32 59.66c-9.21 0-17.895-4.682-23.076-12.44-2.228-3.337-4-8.143-4.381-11.887l-.096-.947-2.224-.04C.343 34.312 0 34.34 0 34.521Z" fill="#FFC045"/></svg>